<svg width="15" height="12" viewBox="0 0 15 12" fill="none" xmlns="http://www.w3.org/2000/svg">
<path d="M14.9269 10.3357L11.2866 0.876239C11.1572 0.539838 10.8751 0.324341 10.5647 0.324341H8.0233L8.0871 1.00897C8.10012 1.14849 8.0035 1.27028 7.87981 1.27028H7.12043C6.99673 1.27028 6.90012 1.14849 6.91314 1.00897L6.97694 0.324341H4.43554C4.12486 0.324341 3.84283 0.539838 3.7134 0.876239L0.0730353 10.3357C-0.16785 10.9621 0.216525 11.6757 0.795431 11.6757H5.92147L6.18996 8.78817C6.21236 8.54754 6.391 8.36486 6.60429 8.36486H8.39595C8.60923 8.36486 8.78788 8.54754 8.81028 8.78817L9.07876 11.6757H14.2048C14.7837 11.6757 15.1681 10.9621 14.9269 10.3357ZM6.78137 2.42788C6.78677 2.36976 6.81095 2.31597 6.84923 2.27689C6.8875 2.23781 6.93718 2.2162 6.98866 2.21623H8.01184C8.11835 2.21623 8.20793 2.30757 8.21913 2.42788L8.33892 3.71614C8.35845 3.92572 8.21366 4.10811 8.02824 4.10811H6.97251C6.78684 4.10811 6.64231 3.92572 6.66184 3.71614L6.78137 2.42788ZM8.21991 7.41891H6.78007C6.53267 7.41891 6.3397 7.17563 6.36574 6.89628L6.49777 5.47737C6.52017 5.23674 6.69882 5.05406 6.9121 5.05406H8.08788C8.30116 5.05406 8.47981 5.23674 8.5022 5.47737L8.63423 6.89628C8.66027 7.17563 8.46731 7.41891 8.21991 7.41891Z" fill="#333333"/>
</svg>
