<svg width="13" height="14" viewBox="0 0 13 14" fill="none" xmlns="http://www.w3.org/2000/svg">
<path d="M11.6011 8.37883C11.5367 8.42432 10.2022 9.85913 10.2022 10.8661C10.2022 11.9278 10.866 12.6058 11.6011 12.6428C12.2348 12.674 13 12.0096 13 10.8661C13 9.80014 11.6654 8.42432 11.6011 8.37883ZM4.31701 12.6428C4.58141 12.9114 4.93253 13.0592 5.30604 13.0592C5.67954 13.0592 6.03067 12.9114 6.29506 12.6428L11.1912 7.66818L10.6967 7.16575L5.30604 1.68873L3.7022 0.0592041L2.71317 1.06407L4.31701 2.6936L0.409878 6.66331C0.145486 6.93194 0 7.28869 0 7.66818C0 8.04767 0.145486 8.40442 0.409878 8.67304L4.31701 12.6428ZM5.30604 3.69847L9.21317 7.66818H1.3989L5.30604 3.69847Z" fill="#333333"/>
</svg>
