<svg width="20" height="20" viewBox="0 0 20 20" fill="none" xmlns="http://www.w3.org/2000/svg">
<path d="M14.017 0H5.947C4.37015 0.00185307 2.85844 0.629143 1.74353 1.74424C0.628623 2.85933 0.00158794 4.37115 0 5.948L0 14.018C0.00185307 15.5948 0.629143 17.1066 1.74424 18.2215C2.85933 19.3364 4.37115 19.9634 5.948 19.965H14.018C15.5948 19.9631 17.1066 19.3359 18.2215 18.2208C19.3364 17.1057 19.9634 15.5938 19.965 14.017V5.947C19.9631 4.37015 19.3359 2.85844 18.2208 1.74353C17.1057 0.628623 15.5938 0.00158794 14.017 0V0ZM17.957 14.017C17.957 14.5344 17.8551 15.0468 17.6571 15.5248C17.4591 16.0028 17.1689 16.4371 16.803 16.803C16.4371 17.1689 16.0028 17.4591 15.5248 17.6571C15.0468 17.8551 14.5344 17.957 14.017 17.957H5.947C4.90222 17.9567 3.90032 17.5415 3.16165 16.8026C2.42297 16.0638 2.008 15.0618 2.008 14.017V5.947C2.00827 4.90222 2.42349 3.90032 3.16235 3.16165C3.90122 2.42297 4.90322 2.008 5.948 2.008H14.018C15.0628 2.00827 16.0647 2.42349 16.8034 3.16235C17.542 3.90122 17.957 4.90322 17.957 5.948V14.018V14.017Z" fill="black"/>
<path d="M9.98201 4.81909C8.61344 4.82121 7.30154 5.36588 6.33391 6.3337C5.36627 7.30152 4.82186 8.61352 4.82001 9.98209C4.82159 11.351 5.36603 12.6634 6.33391 13.6315C7.30179 14.5996 8.61409 15.1442 9.98301 15.1461C11.3521 15.1445 12.6647 14.5999 13.6328 13.6318C14.6008 12.6637 15.1454 11.3512 15.147 9.98209C15.1449 8.61318 14.5999 7.30098 13.6317 6.33329C12.6634 5.3656 11.3509 4.82141 9.98201 4.82009V4.81909ZM9.98201 13.1381C9.14525 13.1381 8.34276 12.8057 7.75109 12.214C7.15941 11.6223 6.82701 10.8198 6.82701 9.98309C6.82701 9.14633 7.15941 8.34385 7.75109 7.75217C8.34276 7.16049 9.14525 6.82809 9.98201 6.82809C10.8188 6.82809 11.6213 7.16049 12.2129 7.75217C12.8046 8.34385 13.137 9.14633 13.137 9.98309C13.137 10.8198 12.8046 11.6223 12.2129 12.214C11.6213 12.8057 10.8188 13.1381 9.98201 13.1381Z" fill="black"/>
<path d="M15.156 6.09509C15.8392 6.09509 16.393 5.54127 16.393 4.85809C16.393 4.17492 15.8392 3.62109 15.156 3.62109C14.4728 3.62109 13.919 4.17492 13.919 4.85809C13.919 5.54127 14.4728 6.09509 15.156 6.09509Z" fill="black"/>
</svg>
